# xmcd CD database file
#
# Track frame offsets:
#	150
#	76511
#	146514
#	204831
#	250421
#	293160
#
# Disc length: 4544 seconds
#
# Revision: 0
# Processed by: cddbd v1.5.2PL0 Copyright (c) Steve Scherf et al.
# Submitted via: CDex 1.51
#
DISCID=4911be06
DTITLE=Deuter - Ocean Waves
DYEAR=2012
DGENRE=New Age
TTITLE0=Bali
TTITLE1=Cannes
TTITLE2=Lanzarote
TTITLE3=Nice
TTITLE4=Antalya
TTITLE5=Theoule-Sur-Mer
EXTD=YEAR: 2012
EXTT0=
EXTT1=
EXTT2=
EXTT3=
EXTT4=
EXTT5=
PLAYORDER=
